<mxfile host="app.diagrams.net" modified="2024-03-27T13:36:59.527Z" agent="Mozilla/5.0 (Windows NT 10.0; Win64; x64) AppleWebKit/537.36 (KHTML, like Gecko) Chrome/123.0.0.0 Safari/537.36" etag="tNpuhcAGQ78SKnvRsP-6" version="24.0.7" type="github">
  <diagram name="Page-1" id="pNVjUSOKaVpIeLjmSWSg">
    <mxGraphModel dx="1588" dy="1940" grid="1" gridSize="10" guides="1" tooltips="1" connect="1" arrows="1" fold="1" page="1" pageScale="1" pageWidth="850" pageHeight="1100" math="0" shadow="0">
      <root>
        <mxCell id="0" />
        <mxCell id="1" parent="0" />
        <mxCell id="hQwiWEiXkWp8GvgBSlif-1" value="" style="rounded=0;whiteSpace=wrap;html=1;" parent="1" vertex="1">
          <mxGeometry x="315" y="10" width="1920" height="1080" as="geometry" />
        </mxCell>
        <mxCell id="hQwiWEiXkWp8GvgBSlif-2" value="S&lt;span style=&quot;background-color: initial; font-size: 62px;&quot;&gt;tartsida(PC)&lt;/span&gt;" style="text;html=1;align=center;verticalAlign=middle;whiteSpace=wrap;rounded=0;fontSize=62;fontStyle=5" parent="1" vertex="1">
          <mxGeometry x="1050" y="-160" width="450" height="80" as="geometry" />
        </mxCell>
        <mxCell id="hQwiWEiXkWp8GvgBSlif-3" value="" style="rounded=0;whiteSpace=wrap;html=1;" parent="1" vertex="1">
          <mxGeometry x="1150" y="-1080" width="120" height="60" as="geometry" />
        </mxCell>
        <mxCell id="hQwiWEiXkWp8GvgBSlif-4" value="&lt;font style=&quot;font-size: 17px;&quot;&gt;Startsida&lt;/font&gt;" style="text;html=1;align=center;verticalAlign=middle;whiteSpace=wrap;rounded=0;" parent="1" vertex="1">
          <mxGeometry x="1175" y="-1065" width="70" height="30" as="geometry" />
        </mxCell>
        <mxCell id="2qTwefWw-hgDFdTxRbgO-1" value="" style="rounded=0;whiteSpace=wrap;html=1;" vertex="1" parent="1">
          <mxGeometry x="315" y="10" width="1920" height="120" as="geometry" />
        </mxCell>
        <mxCell id="2qTwefWw-hgDFdTxRbgO-3" value="" style="rounded=0;whiteSpace=wrap;html=1;" vertex="1" parent="1">
          <mxGeometry x="315" y="10" width="205" height="120" as="geometry" />
        </mxCell>
        <mxCell id="2qTwefWw-hgDFdTxRbgO-4" value="Logotyp (bild)" style="text;html=1;align=center;verticalAlign=middle;whiteSpace=wrap;rounded=0;" vertex="1" parent="1">
          <mxGeometry x="388" y="55" width="60" height="30" as="geometry" />
        </mxCell>
        <mxCell id="2qTwefWw-hgDFdTxRbgO-5" value="" style="rounded=0;whiteSpace=wrap;html=1;" vertex="1" parent="1">
          <mxGeometry x="520" y="10" width="300" height="120" as="geometry" />
        </mxCell>
        <mxCell id="2qTwefWw-hgDFdTxRbgO-6" value="Bibliotek" style="text;html=1;align=center;verticalAlign=middle;whiteSpace=wrap;rounded=0;" vertex="1" parent="1">
          <mxGeometry x="640" y="55" width="60" height="30" as="geometry" />
        </mxCell>
      </root>
    </mxGraphModel>
  </diagram>
</mxfile>
